<?xml version="1.0" encoding="UTF-8" standalone="no"?>
<!-- Created with Inkscape (http://www.inkscape.org/) -->

<svg
   xmlns:dc="http://purl.org/dc/elements/1.1/"
   xmlns:cc="http://creativecommons.org/ns#"
   xmlns:rdf="http://www.w3.org/1999/02/22-rdf-syntax-ns#"
   xmlns:svg="http://www.w3.org/2000/svg"
   xmlns="http://www.w3.org/2000/svg"
   xmlns:sodipodi="http://sodipodi.sourceforge.net/DTD/sodipodi-0.dtd"
   xmlns:inkscape="http://www.inkscape.org/namespaces/inkscape"
   width="210mm"
   height="297mm"
   viewBox="0 0 744.09448819 1052.3622047"
   id="svg2"
   version="1.1"
   inkscape:version="0.91 r13725"
   sodipodi:docname="icons.svg">
  <defs
     id="defs4" />
  <sodipodi:namedview
     id="base"
     pagecolor="#ffffff"
     bordercolor="#666666"
     borderopacity="1.0"
     inkscape:pageopacity="0.0"
     inkscape:pageshadow="2"
     inkscape:zoom="2.8"
     inkscape:cx="355.69218"
     inkscape:cy="661.42136"
     inkscape:document-units="px"
     inkscape:current-layer="layer1"
     showgrid="false"
     inkscape:window-width="3726"
     inkscape:window-height="2118"
     inkscape:window-x="114"
     inkscape:window-y="42"
     inkscape:window-maximized="1" />
  <metadata
     id="metadata7">
    <rdf:RDF>
      <cc:Work
         rdf:about="">
        <dc:format>image/svg+xml</dc:format>
        <dc:type
           rdf:resource="http://purl.org/dc/dcmitype/StillImage" />
        <dc:title />
      </cc:Work>
    </rdf:RDF>
  </metadata>
  <g
     inkscape:label="Layer 1"
     inkscape:groupmode="layer"
     id="layer1">
    <path
       style="fill:#686868;fill-opacity:1;stroke:#353535;stroke-width:3;stroke-miterlimit:4;stroke-dasharray:none;stroke-opacity:1"
       d="m 68.300781,331.03516 c -5.356448,0 -9.667969,3.14596 -9.667969,7.05468 l 0,32.25391 c 0,2.05003 1.192863,3.88315 3.09375,5.16992 l 5.570502,23.16542 c 5.585998,-9.67533 11.714044,-18.26657 20.63067,-21.28065 l 24.572266,0 c 5.35645,0 9.66992,-3.14597 9.66992,-7.05469 l 0,-32.25391 c 0,-3.90872 -4.31347,-7.05468 -9.66992,-7.05468 z"
       id="path4147"
       inkscape:connector-curvature="0"
       sodipodi:nodetypes="ssscccsssss"
       inkscape:export-xdpi="137.33"
       inkscape:export-ydpi="137.33" />
    <g
       id="g4142"
       transform="matrix(0.9668679,0,0,0.70554583,1.7743135,97.35165)"
       inkscape:export-xdpi="137.33"
       inkscape:export-ydpi="137.33"
       style="stroke-width:3.63224445;stroke-miterlimit:4;stroke-dasharray:none">
      <text
         transform="scale(0.87326551,1.1451271)"
         sodipodi:linespacing="125%"
         id="text4138"
         y="334.67712"
         x="72.264595"
         style="font-style:normal;font-weight:normal;font-size:36.25813293px;line-height:125%;font-family:sans-serif;letter-spacing:0px;word-spacing:0px;fill:#ffffff;fill-opacity:1;stroke:none;stroke-width:3.63224445;stroke-linecap:butt;stroke-linejoin:miter;stroke-opacity:1;stroke-miterlimit:4;stroke-dasharray:none"
         xml:space="preserve"><tspan
           style="font-style:normal;font-variant:normal;font-weight:500;font-stretch:normal;font-size:54.3871994px;font-family:Ubuntu;-inkscape-font-specification:'Ubuntu Medium';fill:#ffffff;fill-opacity:1;stroke-width:3.63224445;stroke-miterlimit:4;stroke-dasharray:none"
           y="334.67712"
           x="72.264595"
           id="tspan4140"
           sodipodi:role="line">„ ”</tspan></text>
    </g>
    <rect
       style="fill:#308fd5;fill-opacity:1;stroke:none;stroke-width:4;stroke-miterlimit:4;stroke-dasharray:none;stroke-opacity:0.84383557"
       id="rect4157"
       width="137.14287"
       height="137.10849"
       x="131.64285"
       y="124.07649"
       inkscape:export-xdpi="84"
       inkscape:export-ydpi="84" />
    <circle
       style="fill:#686868;fill-opacity:0.10684934;stroke:#ffffff;stroke-width:8;stroke-miterlimit:4;stroke-dasharray:none;stroke-opacity:0.84383559"
       id="path4151"
       cx="178.57143"
       cy="170.93364"
       r="34.642857"
       inkscape:export-xdpi="84"
       inkscape:export-ydpi="84" />
    <rect
       style="fill:#686868;fill-opacity:0.10684934;stroke:#ffffff;stroke-width:8;stroke-miterlimit:4;stroke-dasharray:none;stroke-opacity:0.84383559"
       id="rect4153"
       width="4.2857141"
       height="66.071426"
       x="4.141778"
       y="292.31274"
       rx="10"
       ry="10"
       transform="matrix(0.70710678,-0.70710678,0.70710678,0.70710678,0,0)"
       inkscape:export-xdpi="84"
       inkscape:export-ydpi="84" />
    <path
       style="fill:none;fill-rule:evenodd;stroke:#ffffff;stroke-width:4;stroke-linecap:butt;stroke-linejoin:miter;stroke-opacity:0.84383559;stroke-miterlimit:4;stroke-dasharray:none"
       d="m 156.07143,168.07649 c 0,0 0.35714,-20 20.71428,-20"
       id="path4155"
       inkscape:connector-curvature="0"
       inkscape:export-xdpi="84"
       inkscape:export-ydpi="84" />
    <rect
       style="fill:#5ad530;fill-opacity:1;stroke:none;stroke-width:4;stroke-miterlimit:4;stroke-dasharray:none;stroke-opacity:0.84383557"
       id="rect4157-3"
       width="137.14287"
       height="137.10849"
       x="314.78146"
       y="103.9651"
       inkscape:export-xdpi="84"
       inkscape:export-ydpi="84" />
    <g
       id="g4186"
       transform="matrix(0.22614079,-0.15167344,0.15167344,0.22614079,386.23239,140.27711)"
       style="fill:#ffffff;fill-opacity:1"
       inkscape:export-xdpi="84"
       inkscape:export-ydpi="84">
      <path
         style="fill:#ffffff;fill-opacity:1"
         d="m -3.8418767,270.66324 c -4.44905,-0.51799 -8.5558603,-1.01185 -9.1262503,-1.09749 l -1.03707,-0.15568 -0.20742,-10.57815 -0.20741,-10.57815 -3.52605,-1.87309 c -1.93933,-1.03019 -4.39971,-2.47692 -5.46753,-3.21492 -1.0678,-0.73801 -2.05816,-1.34184 -2.20077,-1.34184 -0.14262,0 -3.96535,2.52009 -8.49497,5.60019 -4.52962,3.08011 -8.42591,5.6002 -8.65842,5.6002 -0.60559,0 -12.92778,-15.96996 -12.92778,-16.75482 0,-0.35966 3.08011,-3.80593 6.84468,-7.65839 3.76458,-3.85246 6.84469,-7.29847 6.84469,-7.65779 0,-0.35932 -0.546,-2.29732 -1.21332,-4.30666 -0.66733,-2.00935 -1.34098,-4.53405 -1.497,-5.61044 -0.15603,-1.07639 -0.54819,-2.17658 -0.87147,-2.44488 -0.32328,-0.26831 -4.71509,-1.38232 -9.75957,-2.47556 -5.04448,-1.09325 -9.36148,-2.17743 -9.59334,-2.4093 -0.37732,-0.37731 0.8787,-15.95143 1.63471,-20.26977 l 0.23602,-1.34819 10.14076,0 10.14075,0 1.44435,-3.16941 c 0.79439,-1.74318 2.20121,-4.4434 3.12626,-6.0005 l 1.68192,-2.83108 -5.30113,-8.37018 c -2.91562,-4.60361 -5.31309,-8.70457 -5.32772,-9.11326 -0.0295,-0.82316 14.79682,-13.65782 15.77718,-13.65782 0.51129,0 3.35435,2.8306 12.04967,11.99687 l 2.52638,2.66321 2.39296,-0.97123 c 1.31614,-0.53418 3.96354,-1.37781 5.8831303,-1.87474 1.91958,-0.49693 3.66884,-1.08219 3.88724,-1.30059 0.2184,-0.2184 1.26337,-4.77336 2.32216,-10.12213 1.05879,-5.34878 2.07601999,-9.89413 2.26051999,-10.10079 0.49365,-0.55297 20.34048971,1.6801 20.80055971,2.34037 0.20095,0.28839 0.28979,4.91117 0.19742,10.27284 -0.0924,5.36166 -0.0908,9.97523 0.003,10.25235 0.0943,0.27713 1.51148,1.15423 3.14929,1.94912 1.63781,0.79488 3.97416,2.10819 5.19189,2.91847 1.21774,0.81028 2.52705,1.47323 2.90959,1.47323 0.38254,0 4.23971,-2.42821 8.5715,-5.39602 4.33179,-2.96781 8.15493,-5.34554 8.49588,-5.28385 0.57898,0.10478 13.26121,15.93751 13.27196,16.56897 0.003,0.15889 -3.16853,3.54327 -7.04718,7.52083 -3.87865,3.97756 -7.0521,7.42418 -7.0521,7.65915 0,0.23497 0.54355,2.09054 1.20788,4.12349 0.66434,2.03294 1.33763,4.56144 1.4962,5.61889 0.15858,1.05745 0.50173,2.2068 0.76256,2.5541 0.29851,0.39749 3.70215,1.33387 9.18566,2.5271 4.79127,1.0426 9.13143,2.00047 9.64478,2.12861 0.75303,0.18795 0.93336,0.52296 0.93336,1.73389 0,1.74047 -1.58294,18.07541 -1.88595,19.46172 l -0.204,0.93337 -10.15225,0 -10.15225,0 -1.83997,3.83717 c -1.01199,2.11044 -2.41208,4.78813 -3.11133,5.95041 l -1.27135,2.11325 5.41906,8.57421 c 2.98048,4.71582 5.35919,8.84912 5.28601,9.18511 -0.15,0.68875 -15.18624,13.47472 -15.87058,13.49544 -0.24244,0.007 -3.61463,-3.28105 -7.49374,-7.30754 l -7.05294,-7.32088 -3.52521,1.24182 c -1.93887,0.683 -4.6071,1.48291 -5.92941,1.77759 -1.32232,0.29467 -2.53569,0.73264 -2.69639,0.97326 -0.16071,0.24062 -1.2255597,4.92251 -2.3663397,10.40419 l -2.07415,9.9667 -1.24448,0.0604 c -0.68447,0.0332 -4.88462001,-0.3634 -9.33366,-0.88139 z m 12.56708,-50.82912 c 8.4376297,-2.60611 13.9625997,-10.31806 13.9770697,-19.50968 0.013,-8.25306 -4.20831,-15.08287 -11.46332,-18.54696 -3.1832297,-1.51992 -3.3684597,-1.5557 -8.0502497,-1.5557 -4.72622,0 -4.83659,0.022 -8.0342,1.60235 -12.6733803,6.26353 -15.3983203,23.1089 -5.3616803,33.14553 5.1182903,5.1183 12.2106403,6.94059 18.9323803,4.86446 z M -195.83316,248.10131 c -0.39179,-0.24843 -1.07738,-5.70397 -2.41024,-19.17951 -1.02449,-10.35778 -2.02178,-19.22521 -2.2162,-19.7054 -0.26981,-0.66639 -1.71246,-1.33383 -6.09376,-2.81921 -3.15714,-1.07036 -8.24489,-3.17629 -11.30611,-4.67987 -4.62574,-2.27201 -5.69444,-2.65345 -6.32716,-2.25831 -0.41872,0.26149 -6.8744,5.47146 -14.34596,11.5777 -7.47155,6.10624 -14.13465,11.52692 -14.80687,12.04595 l -1.22223,0.94373 -14.43758,-14.43316 c -7.94067,-7.93823 -14.43758,-14.58841 -14.43758,-14.77817 0,-0.25899 20.80501,-26.06514 24.35528,-30.20984 0.51419,-0.60029 0.29957,-1.25134 -1.77774,-5.39279 -2.49225,-4.96867 -4.6955,-10.36972 -6.06435,-14.8661 -0.4527,-1.48703 -1.03992,-2.92991 -1.30492,-3.2064 -0.39618,-0.41336 -35.12188,-4.26782 -38.44974,-4.26782 -0.80403,0 -0.81863,-0.36958 -0.81863,-20.72267 l 0,-20.722663 1.3482,-0.22347 c 0.7415,-0.12291 9.00179,-0.96932 18.35619,-1.88091 9.3544,-0.91158 17.62981,-1.79951 18.38979,-1.97317 1.35362,-0.30932 1.41952,-0.42988 3.23352,-5.91595 1.01845,-3.08011 3.14307,-8.213625 4.72136,-11.407815 l 2.86963,-5.80761 -0.90113,-1.24173 c -0.49563,-0.68296 -6.01677,-7.4901 -12.26921,-15.12698 -6.25244,-7.63688 -11.46721,-14.14357 -11.58838,-14.45932 -0.23887,-0.62249 27.94276,-29.1147985 28.79733,-29.1147985 0.26725,0 7.31563,5.5877185 15.66306,12.4171485 l 15.17716,12.41715 5.92331,-2.86094 c 3.25782,-1.57352 8.40654,-3.69233 11.4416,-4.70846 3.03506,-1.01613 5.63127,-1.96051 5.76937,-2.09861 0.1381,-0.1381 1.12614,-8.90779 2.19564,-19.4881985 1.0695,-10.5804 2.07191,-19.4431805 2.22758,-19.6950605 0.33025,-0.53436 40.70754,-0.66965 41.03643,-0.13751 0.10893,0.17625 1.06684,8.9965605 2.1287,19.6006905 1.06185,10.6041185 2.07989,19.4336685 2.2623,19.6212085 0.18241,0.18754 2.45562,1.05691 5.05159,1.93192 5.72361,1.92924 10.75054,4.06131 14.79824,6.27634 2.97739,1.62933 3.04213,1.64399 4.01374,0.90911 0.54315,-0.41082 7.44408,-6.03226 15.33539,-12.49211 10.20604,-8.354689 14.557203,-11.6787185 15.073123,-11.5149685 0.39891,0.12661 7.04171,6.5566785 14.76177,14.2890585 12.20384,12.2233 13.98002,14.16001 13.60411,14.83361 -0.2378,0.42611 -5.78308,7.3083 -12.32285,15.29377 -6.53977,7.98546 -11.96942,14.71518 -12.0659,14.95492 -0.0965,0.23974 1.12197,3.13318 2.70766,6.42985 1.58569,3.296685 3.66579,8.327385 4.62244,11.179335 0.95666,2.85195 1.90043,5.35808 2.09728,5.56917 0.19684,0.2111 9.06028,1.25502 19.69652,2.31983 14.54604,1.45622 19.43024,2.08073 19.70831,2.51999 0.20334,0.32119 0.37257,9.474773 0.37606,20.341293 0.005,15.30951 -0.11038,19.85273 -0.51219,20.18119 -0.28519,0.23313 -9.19884,1.29277 -19.8081,2.35475 -10.60926,1.06198 -19.40634,2.0608 -19.54907,2.2196 -0.14273,0.1588 -0.87009,2.15545 -1.61636,4.43701 -1.66056,5.07685 -4.55326,11.98483 -6.45544,15.41609 -0.77945,1.40601 -1.41718,2.74643 -1.41718,2.97872 0,0.23228 5.59496,7.27091 12.43325,15.64139 9.77291,11.96264 12.353,15.36391 12.05817,15.89602 -0.2063,0.37233 -6.72486,7.00767 -14.4857,14.74521 l -14.1106,14.06824 -1.78473,-1.44324 c -0.9816,-0.79379 -7.887123,-6.42448 -15.345593,-12.51264 -7.45846,-6.08817 -13.75498,-11.06939 -13.99225,-11.06939 -0.23728,0 -2.62852,1.09837 -5.31388,2.44083 -4.90485,2.45201 -10.71909,4.77641 -15.14184,6.05336 -1.30768,0.37756 -2.45916,0.81843 -2.55884,0.97971 -0.0997,0.16129 -1.05212,8.96905 -2.11652,19.5728 -1.06441,10.60376 -2.12921,19.51321 -2.36621,19.79877 -0.33412,0.4026 -4.86838,0.51779 -20.18821,0.51287 -10.86652,-0.003 -20.0037,-0.16259 -20.30485,-0.35353 z m 29.47723,-95.07616 c 6.43676,-1.64344 11.97542,-4.7119 16.9134,-9.37014 5.17617,-4.88293 8.93158,-11.20603 10.85709,-18.28041 1.27936,-4.70039 1.28647,-13.42352 0.0151,-18.49522 -2.81552,-11.231333 -10.23644,-20.298563 -20.6251,-25.200743 -6.34061,-2.99199 -8.77394,-3.50548 -16.59317,-3.50151 -7.27768,0.004 -10.27378,0.58853 -15.76122,3.07667 -10.81364,4.90314 -19.22623,15.56644 -21.59783,27.376143 -0.94782,4.71976 -0.64527,13.02298 0.63608,17.4566 4.25838,14.73454 16.30526,25.40919 31.34633,27.77578 3.67388,0.57805 10.85683,0.17201 14.80935,-0.83716 z M 20.425633,106.5882 c -1.36894,-0.16647 -7.43581,-0.80256 -13.4819497,-1.41354 -6.04614001,-0.61099 -11.41061,-1.19889 -11.92105,-1.30646 l -0.92806,-0.19559 -0.10901,-14.571093 c -0.0931,-12.448885 -0.19963,-14.620205 -0.73125,-14.908345 -0.34223,-0.1855 -2.39564,-1.16863 -4.5631203,-2.18473 -2.16749,-1.01611 -5.39337,-2.79802 -7.16864,-3.95981 -1.77527,-1.16179 -3.34891,-2.11234 -3.49699,-2.11234 -0.14808,0 -5.52472,3.45346 -11.94808,7.67434 -6.42336,4.220885 -11.96893,7.674345 -12.3235,7.674345 -0.35456,0 -4.52106,-4.806835 -9.25887,-10.681855 -4.73781,-5.87502 -8.90235,-11.01711 -9.25452,-11.42687 -0.59678,-0.69437 0.0561,-1.44184 9.60456,-10.99603 5.63467,-5.63805 10.24486,-10.41048 10.24486,-10.60538 0,-0.19492 -0.67335,-2.15218 -1.49634,-4.34949 -0.82299,-2.19732 -1.93582,-5.94007 -2.47296,-8.31724 -0.53715,-2.37716 -1.12384,-4.45821 -1.30376,-4.62454 -0.29586,-0.2735 -6.65016,-1.6583 -21.89826,-4.77227 -2.96603,-0.60572 -5.61705,-1.31498 -5.89117,-1.57611 -0.38716,-0.36884 -0.1737,-3.622599 0.95643,-14.57899851 0.80015,-7.75730999 1.53191,-14.33754049 1.62615,-14.62274049 0.13272,-0.40166 3.43743,-0.51853 14.66216,-0.51853 l 14.49083,0 2.46842,-5.10631 c 1.35763,-2.80847 3.32591,-6.38453 4.37395,-7.94679 1.79076,-2.6694 1.87131,-2.90665 1.33731,-3.93929 -0.31252,-0.60435 -3.85443,-6.10789 -7.87089,-12.2301 -7.01299,-10.68972 -7.27433,-11.1626 -6.58796,-11.92103 0.73823,-0.81574 21.0625,-17.34281 22.06847,-17.9454 0.40438,-0.24223 3.49496,2.58881 10.84273,9.93216 l 10.2771303,10.27097 3.37013,-1.28693 c 3.39177,-1.29519 9.71275,-3.09052 12.57867,-3.57268 1.84656,-0.31067 1.40951,1.09824 4.8957797,-15.78261 1.41358,-6.84468 2.71508,-12.601 2.89224,-12.79183 0.30799,-0.33177 28.83791,2.45491 29.53331,2.88468 0.18476,0.1142 0.33594,6.74052 0.33594,14.72516 l 0,14.51753 2.17785,0.88909 c 3.1231,1.27497 7.83792,3.78034 10.73308,5.70335 1.37303,0.912 2.76663,1.65817 3.09688,1.65817 0.33026,0 5.91912,-3.47476 12.4197,-7.72169 9.76988,-6.38283 11.92527,-7.63369 12.43081,-7.21413 0.84257,0.69927 18.042007,21.90591 18.289357,22.55049 0.11041,0.28772 -4.341707,5.01001 -9.977177,10.58264 -5.5971,5.5347 -10.17649,10.19139 -10.17642,10.3482 6e-5,0.15682 0.67067,2.15186 1.49024,4.43342 0.81956,2.28156 1.93052,6.0837805 2.4688,8.4493805 0.53828,2.3656 1.06608,4.38849 1.17291,4.49531 0.21066,0.21066 2.26616,0.65962 17.683537,3.86238 5.58982,1.16121 10.29415,2.24164 10.45403,2.40095 0.39695,0.39546 -2.59182,28.7812785 -3.09874,29.4307185 -0.30983,0.39691 -3.74732,0.51853 -14.655337,0.51853 l -14.25055,0 -2.26108,4.66683 c -1.2436,2.56676 -3.20167,6.14209 -4.35126,7.94519 -1.14959,1.80309 -1.97895,3.48315 -1.84302,3.73346 0.13593,0.25031 3.7043,5.74043 7.92971,12.20026 6.5871,10.07041 7.59968,11.82798 7.10135,12.32604 -1.91849,1.91742 -22.26152,18.022645 -22.77146,18.027765 -0.34052,0.003 -5.12943,-4.50125 -10.64202,-10.0104 l -10.02288,-10.016615 -5.74374,1.89831 c -3.15906,1.04407 -6.95712,2.1224 -8.44014,2.396295 -1.48301,0.27389 -2.90534,0.70702 -3.16073,0.9625 -0.25539,0.25549 -1.72001,6.5314 -3.25473,13.94648 -2.56356,12.386023 -3.16706,14.622583 -3.90235,14.462273 -0.14319,-0.0312 -1.38037,-0.19297 -2.74931,-0.35944 z m 2.14489,-69.687258 c 6.63888,-0.86264 12.30039,-3.82022 17.05161,-8.90778 4.93942,-5.28908 7.28013,-11.26478 7.31746,-18.6810685 0.0257,-5.09875 -0.55811,-7.61641 -2.90215,-12.51612 -3.14971,-6.5838 -8.83539,-11.5438205 -16.14886,-14.0877805 -2.93317,-1.02029 -3.91144,-1.15373 -8.50002,-1.15946 -3.82928,-0.005 -5.83629,0.19013 -7.67435,0.7453 -7.6894797,2.32257 -14.0965797,7.64936 -17.3822997,14.4514605 -3.40686,7.05291 -3.96144,13.8328695 -1.71353,20.9487185 3.19115,10.10166 12.05124,17.62959 22.5677597,19.17456 3.21334,0.47206 3.97352,0.47537 7.38438,0.0322 z"
         id="path4188"
         inkscape:connector-curvature="0" />
    </g>
    <rect
       style="fill:#ffb600;fill-opacity:1;stroke:none;stroke-width:4;stroke-miterlimit:4;stroke-dasharray:none;stroke-opacity:0.84383557"
       id="rect4207"
       width="145.37148"
       height="67.114861"
       x="294.66751"
       y="312.28064"
       rx="5.4511528"
       ry="6.6440334"
       inkscape:export-xdpi="494.15378"
       inkscape:export-ydpi="494.15378" />
    <text
       xml:space="preserve"
       style="font-style:normal;font-weight:normal;font-size:27.84099579px;line-height:100%;font-family:sans-serif;letter-spacing:0px;word-spacing:0px;fill:#ffffff;fill-opacity:1;stroke:none;stroke-width:0.5;stroke-linecap:butt;stroke-linejoin:miter;stroke-miterlimit:4;stroke-dasharray:none;stroke-opacity:0.21095892"
       x="368.50873"
       y="342.29681"
       id="text4209"
       sodipodi:linespacing="100%"
       inkscape:export-xdpi="494.15378"
       inkscape:export-ydpi="494.15378"><tspan
         sodipodi:role="line"
         id="tspan4211"
         x="368.50873"
         y="342.29681"
         style="line-height:100%;text-align:center;text-anchor:middle;fill:#ffffff;fill-opacity:1;stroke:none;stroke-width:0.5;stroke-miterlimit:4;stroke-dasharray:none;stroke-opacity:0.21095892">Advanced</tspan><tspan
         sodipodi:role="line"
         x="368.50873"
         y="370.13782"
         id="tspan4213"
         style="line-height:100%;text-align:center;text-anchor:middle;fill:#ffffff;fill-opacity:1;stroke:none;stroke-width:0.5;stroke-miterlimit:4;stroke-dasharray:none;stroke-opacity:0.21095892">Search</tspan></text>
  </g>
</svg>
