<?xml version="1.0" encoding="UTF-8" standalone="no"?>
<!-- Created with Inkscape (http://www.inkscape.org/) -->

<svg
   xmlns:dc="http://purl.org/dc/elements/1.1/"
   xmlns:cc="http://creativecommons.org/ns#"
   xmlns:rdf="http://www.w3.org/1999/02/22-rdf-syntax-ns#"
   xmlns:svg="http://www.w3.org/2000/svg"
   xmlns="http://www.w3.org/2000/svg"
   xmlns:sodipodi="http://sodipodi.sourceforge.net/DTD/sodipodi-0.dtd"
   xmlns:inkscape="http://www.inkscape.org/namespaces/inkscape"
   width="85.167679mm"
   height="83.958389mm"
   viewBox="0 0 85.167679 83.958389"
   version="1.1"
   id="svg3902"
   sodipodi:docname="ponymail v2.svg"
   inkscape:version="0.92.3 (2405546, 2018-03-11)">
  <defs
     id="defs3896" />
  <sodipodi:namedview
     id="base"
     pagecolor="#ffffff"
     bordercolor="#666666"
     borderopacity="1.0"
     inkscape:pageopacity="0.0"
     inkscape:pageshadow="2"
     inkscape:zoom="2.8"
     inkscape:cx="205.11974"
     inkscape:cy="145.90815"
     inkscape:document-units="mm"
     inkscape:current-layer="text7034"
     showgrid="false"
     inkscape:window-width="3726"
     inkscape:window-height="2049"
     inkscape:window-x="114"
     inkscape:window-y="55"
     inkscape:window-maximized="1"
     fit-margin-top="0"
     fit-margin-left="0"
     fit-margin-right="0"
     fit-margin-bottom="0" />
  <metadata
     id="metadata3899">
    <rdf:RDF>
      <cc:Work
         rdf:about="">
        <dc:format>image/svg+xml</dc:format>
        <dc:type
           rdf:resource="http://purl.org/dc/dcmitype/StillImage" />
        <dc:title></dc:title>
      </cc:Work>
    </rdf:RDF>
  </metadata>
  <g
     inkscape:label="Layer 1"
     inkscape:groupmode="layer"
     id="layer1"
     transform="translate(-51.562069,-80.80124)">
    <path
       id="path6816"
       style="opacity:1;fill:#ffdca2;fill-opacity:1;stroke:#673d1a;stroke-width:0.69999999;stroke-linecap:butt;stroke-linejoin:miter;stroke-miterlimit:4;stroke-dasharray:none;stroke-opacity:1"
       d="m 57.814842,87.30467 c -0.04687,21.64924 -0.245542,43.29925 -0.07945,64.94825 0.05694,1.92094 -0.0073,3.8899 0.124147,5.78132 4.219444,0.1839 8.453612,0.053 12.678544,0.10269 19.899313,-0.0125 39.799737,0.0233 59.698217,-0.13142 0.2,-1.01109 0.0392,-2.18736 0.10727,-3.2529 0.0791,-22.19477 0.10864,-44.39041 -0.0259,-66.584948 -0.0113,-0.327946 0.12461,-0.904111 -0.40882,-0.742729 -24.01361,-0.195074 -48.02869,-0.118982 -72.042943,-0.171074 z m -4.003113,76.99693 c -0.111975,-0.0452 -0.20359,-0.3529 -0.20359,-0.68383 0,-0.79008 -0.368997,-1.28844 -1.048356,-1.41589 -0.647253,-0.12142 -0.713344,-0.3028 -0.590254,-1.6199 0.07889,-0.84413 0.139406,-0.98408 0.444326,-1.02752 0.194149,-0.0276 0.542287,-0.2257 0.773641,-0.44012 0.818038,-0.75812 0.405567,-1.98448 -0.760177,-2.26014 -0.425567,-0.10064 -0.447897,-0.15346 -0.447897,-1.05968 0,-0.92722 0.01346,-0.95646 0.483525,-1.05047 1.546847,-0.30937 1.523102,-2.10742 -0.03563,-2.69796 -0.413568,-0.15668 -0.447897,-0.23817 -0.447897,-1.06324 v -0.89354 l 0.648716,-0.17468 c 0.707016,-0.19038 0.980001,-0.54046 0.980001,-1.25678 0,-0.63756 -0.403378,-1.15565 -1.025247,-1.31679 -0.51285,-0.13289 -0.522035,-0.1521 -0.522035,-1.0918 0,-0.93969 0.0092,-0.9589 0.522035,-1.09179 1.356729,-0.35157 1.356729,-2.18813 0,-2.53969 -0.51285,-0.1329 -0.522035,-0.1521 -0.522035,-1.09179 0,-0.9397 0.0092,-0.95891 0.522035,-1.0918 1.380456,-0.35771 1.311468,-2.34456 -0.09115,-2.62508 -0.392023,-0.0784 -0.48523,-0.18868 -0.534309,-0.63213 -0.115773,-1.04605 0.0023,-1.3883 0.514539,-1.49074 1.526983,-0.30539 1.520033,-2.34922 -0.009,-2.65504 -0.470063,-0.094 -0.483525,-0.12326 -0.483525,-1.05047 0,-0.90622 0.02233,-0.95905 0.447897,-1.05968 1.484254,-0.35099 1.600851,-2.26148 0.160792,-2.63463 -0.583739,-0.15126 -0.762048,-0.58301 -0.615471,-1.49027 0.07471,-0.46245 0.181204,-0.5835 0.61138,-0.69497 1.384012,-0.35863 1.308714,-2.34459 -0.09958,-2.62625 -0.517901,-0.10358 -0.645554,-0.46969 -0.529687,-1.51916 0.04843,-0.4387 0.137453,-0.52936 0.606088,-0.61727 1.466065,-0.27504 1.365515,-2.24809 -0.133527,-2.62015 -0.423983,-0.10522 -0.447897,-0.16131 -0.447897,-1.05038 0,-0.91108 0.01449,-0.94211 0.483525,-1.03592 0.668052,-0.13361 1.145193,-0.65762 1.145193,-1.25769 0,-0.73016 -0.235666,-1.05798 -0.972479,-1.3528 -0.653608,-0.26152 -0.656239,-0.26612 -0.656239,-1.14706 0,-0.86627 0.01173,-0.88835 0.569546,-1.07245 1.396489,-0.46088 1.434244,-2.06936 0.05944,-2.53225 -0.538035,-0.18115 -0.547548,-0.20091 -0.547548,-1.1367 0,-0.935 0.0095,-0.95481 0.522035,-1.08763 0.633549,-0.16416 1.027033,-0.68368 1.020067,-1.34679 -0.0069,-0.66147 -0.352082,-1.07756 -1.00369,-1.21004 -0.525786,-0.1069 -0.539556,-0.13124 -0.587201,-1.03804 l -0.04879,-0.92858 0.66431,-0.26581 c 0.724756,-0.28998 0.980549,-0.62528 0.980549,-1.28529 0,-0.67687 -0.28025,-1.031959 -0.979888,-1.241579 l -0.648829,-0.19439 v -0.94379 -0.9438 l 0.586543,-0.16195 c 1.47045,-0.40602 1.384071,-2.03041 -0.138646,-2.6073 -0.413031,-0.15648 -0.447897,-0.23876 -0.447897,-1.05689 0,-0.86936 0.01144,-0.89097 0.569546,-1.07516 1.392421,-0.45954 1.415566,-2.21497 0.03392,-2.57298 -0.512522,-0.13281 -0.522035,-0.15263 -0.522035,-1.08762 0,-0.9358 0.0095,-0.95555 0.547549,-1.13671 0.680257,-0.22903 0.999733,-0.64972 0.999733,-1.31643 0,-0.58268 -0.386644,-1.01012 -1.081884,-1.19606 -0.445613,-0.11918 -0.465398,-0.16551 -0.465398,-1.08998 0,-0.84093 0.04203,-0.97171 0.325744,-1.01352 0.646669,-0.0953 1.108863,-0.61475 1.207995,-1.3576 l 0.09498,-0.71172 1.099384,-0.0482 1.099385,-0.0482 v 0.59002 c 0,0.43497 0.125113,0.71514 0.476087,1.06611 0.864214,0.86422 1.945646,0.43085 2.116318,-0.84808 l 0.09498,-0.71173 1.099384,-0.0482 1.099385,-0.0482 v 0.56499 c 0,0.75251 0.673456,1.56722 1.295487,1.56722 0.694779,0 1.310461,-0.57009 1.310461,-1.21341 0,-0.74694 0.294597,-0.92968 1.405305,-0.87174 l 0.944173,0.0493 0.02153,0.63816 c 0.01605,0.47578 0.133876,0.7348 0.463061,1.01795 0.877537,0.75482 1.872927,0.29669 2.037669,-0.93785 l 0.09585,-0.71826 1.099384,-0.0482 1.099384,-0.0482 v 0.59002 c 0,0.71767 0.728612,1.54219 1.362799,1.54219 0.653267,0 1.249298,-0.62909 1.357031,-1.43231 l 0.09374,-0.69888 1.077011,0.0477 1.077009,0.0477 0.09585,0.71826 c 0.163949,1.22861 1.159885,1.69289 2.028568,0.94568 0.38779,-0.33356 0.467343,-0.56833 0.55257,-1.63066 0.0057,-0.0713 0.505121,-0.10793 1.109783,-0.0814 l 1.099384,0.0482 0.09585,0.71826 c 0.172853,1.29533 1.237959,1.71904 2.115449,0.84155 0.350973,-0.35098 0.476087,-0.63114 0.476087,-1.06611 v -0.59002 l 1.099384,0.0482 1.099384,0.0482 0.09585,0.71827 c 0.155536,1.16555 0.933802,1.59367 1.945777,1.07036 0.458309,-0.237 0.581371,-0.48642 0.681599,-1.38145 0.04343,-0.38789 0.09576,-0.40718 1.104262,-0.40718 h 1.058666 l 0.09498,0.71173 c 0.238843,1.78976 2.473625,1.69258 2.624076,-0.11412 l 0.04976,-0.59761 1.099384,-0.0482 1.099384,-0.0482 v 0.66633 c 0,1.8632 2.344789,1.99733 2.591536,0.14825 l 0.09585,-0.71826 h 1.058667 1.058666 l 0.05016,0.60423 c 0.05685,0.6848 0.784966,1.43421 1.387466,1.42804 0.62812,-0.006 1.13279,-0.54553 1.23622,-1.32055 l 0.095,-0.71172 1.09938,-0.0482 1.09939,-0.0482 v 0.59002 c 0,0.71767 0.72861,1.5422 1.3628,1.5422 0.67601,0 1.28593,-0.65144 1.3067,-1.39565 l 0.0179,-0.64025 1.09939,-0.0482 1.09939,-0.0482 v 0.59002 c 0,0.71767 0.72861,1.54219 1.36279,1.54219 0.81188,0 1.27511,-0.66252 1.39503,-1.99517 0.006,-0.0672 0.47775,-0.12216 1.04822,-0.12216 h 1.03722 l 0.0928,0.69195 c 0.10678,0.79612 0.70546,1.42538 1.3561,1.42538 0.63055,0 1.3628,-0.82463 1.3628,-1.53475 v -0.58258 h 1.05867 c 0.58226,0 1.06334,0.055 1.06906,0.12216 0.0915,1.07546 0.16432,1.28926 0.55257,1.62322 0.23784,0.20457 0.60748,0.37195 0.82144,0.37195 0.6025,0 1.2473,-0.65738 1.36698,-1.39365 l 0.1044,-0.64224 h 1.0559 1.0559 l 0.095,0.71172 c 0.17067,1.27893 1.2521,1.7123 2.11632,0.84809 0.35097,-0.35098 0.47609,-0.63114 0.47609,-1.06611 v -0.59002 l 1.09938,0.0482 c 1.03699,0.0454 1.10198,0.0713 1.14498,0.45533 0.10023,0.89503 0.22329,1.14445 0.6816,1.38145 0.68658,0.35505 1.02644,0.30827 1.52254,-0.20954 0.31555,-0.32937 0.43765,-0.62679 0.43765,-1.06611 v -0.60929 l 1.09939,0.0481 1.09938,0.0482 0.0814,0.6081 c 0.0991,0.73994 0.48865,1.22264 1.09397,1.3555 0.888,0.19492 0.87939,0.18278 0.82796,1.16759 l -0.0489,0.93636 -0.6414,0.10362 c -1.68048,0.27147 -1.64873,2.31281 0.0395,2.53924 l 0.69773,0.0936 -0.0479,0.99336 -0.0479,0.99337 -0.6414,0.10367 c -1.64605,0.26604 -1.64605,2.30321 0,2.57076 l 0.6414,0.10426 v 0.96779 c 0,0.96499 -0.002,0.96811 -0.53997,1.07823 -0.71725,0.14669 -1.33305,0.74434 -1.33305,1.29375 0,0.68371 0.5583,1.26896 1.26654,1.32769 l 0.60648,0.0503 0.0496,0.96212 c 0.0541,1.0483 -0.0653,1.22989 -0.81143,1.23415 -0.5383,0.003 -1.11121,0.680009 -1.11121,1.312959 0,0.58403 0.81615,1.29549 1.48611,1.29549 h 0.4839 l -0.0485,1.01577 -0.0485,1.01578 -0.6414,0.10366 c -0.74528,0.12046 -1.23162,0.62792 -1.23162,1.28509 0,0.65681 0.48638,1.16454 1.23162,1.28568 l 0.6414,0.10426 v 0.96717 0.96718 l -0.65149,0.13399 c -1.62994,0.33523 -1.62223,2.28626 0.0101,2.55009 l 0.6414,0.10367 0.0485,1.01578 c 0.0477,0.99904 0.0415,1.01577 -0.37717,1.01577 -0.80916,0 -1.52953,0.58719 -1.53917,1.25459 -0.0127,0.87754 0.64223,1.51423 1.55754,1.51423 0.39603,0 0.40595,0.028 0.3588,1.01356 l -0.0485,1.01356 -0.56354,0.0278 c -0.99483,0.049 -1.66832,1.29173 -1.10071,2.03101 0.28476,0.37089 0.84315,0.63738 1.33557,0.63738 0.41873,0 0.42487,0.0166 0.37717,1.01794 l -0.0485,1.01795 -0.60649,0.0503 c -1.64601,0.13649 -1.66958,2.35408 -0.0279,2.62094 l 0.63435,0.10311 v 0.9717 0.97171 l -0.63435,0.10311 c -1.64172,0.26685 -1.61815,2.48443 0.0279,2.62094 l 0.60649,0.0503 0.0485,1.01795 c 0.0477,1.00138 0.0416,1.01795 -0.37716,1.01795 -1.8774,0 -2.07545,2.41299 -0.22238,2.70931 l 0.64689,0.10344 -0.0479,0.99598 -0.0479,0.99599 -0.60648,0.0503 c -0.71054,0.0589 -1.26655,0.64449 -1.26655,1.33387 0,0.58486 0.69707,1.27063 1.35655,1.33457 l 0.51648,0.0501 v 0.97447 0.97447 l -0.6414,0.10425 c -1.7118,0.27825 -1.57511,2.58865 0.15315,2.58865 h 0.58523 l -0.0485,1.01578 -0.0485,1.01577 -0.6414,0.10367 c -1.64976,0.26665 -1.62022,2.48195 0.0349,2.61921 l 0.60648,0.0503 0.0485,1.01795 0.0485,1.01795 h -0.50892 c -0.68078,0 -1.46108,0.76842 -1.46108,1.43884 0,0.61534 0.79435,1.32998 1.47834,1.32998 0.47238,0 0.47612,0.008 0.47612,0.9598 0,1.01783 -0.1083,1.15753 -0.8973,1.15753 -0.47988,0 -1.05716,0.71051 -1.05716,1.30116 0,0.66539 0.6746,1.30479 1.37663,1.30479 h 0.57783 v 1.28153 1.28153 l -0.69055,0.0926 c -0.85153,0.11422 -1.26391,0.57645 -1.26391,1.41673 0,0.69335 -0.16868,0.81374 -1.1401,0.81374 -0.90822,0 -1.14011,-0.13389 -1.14011,-0.65831 0,-1.12468 -0.67578,-1.74976 -1.65837,-1.53394 -0.53651,0.11783 -0.81201,0.54614 -0.93866,1.45933 l -0.0904,0.65149 h -1.05867 c -1.0572,0 -1.05873,-6.2e-4 -1.10597,-0.48862 -0.0794,-0.81991 -0.36565,-1.34728 -0.83742,-1.54269 -0.95895,-0.39722 -1.80266,0.21928 -1.80266,1.3172 0,0.67697 -0.17351,0.79554 -1.16413,0.79554 -0.87787,0 -1.32417,-0.25244 -1.19055,-0.67341 0.15525,-0.48916 -0.21893,-1.22814 -0.72882,-1.43933 -0.9512,-0.39401 -1.87874,0.24026 -1.84969,1.26485 0.0209,0.73634 -0.12882,0.84221 -1.19528,0.8454 -0.89034,0.002 -1.28123,-0.24979 -1.10359,-0.71271 0.18177,-0.47368 -0.25216,-1.2114 -0.82346,-1.39994 -0.98068,-0.32366 -1.78458,0.25286 -1.77825,1.27529 0.004,0.72 -0.13847,0.83413 -1.04862,0.83736 -1.00965,0.004 -1.37867,-0.23315 -1.25329,-0.80397 0.12928,-0.58863 -0.43707,-1.27041 -1.17257,-1.41154 -0.43902,-0.0842 -0.60412,-0.019 -1.03024,0.40713 -0.36611,0.36611 -0.49435,0.63228 -0.46042,0.95567 0.0732,0.69746 -0.12138,0.85545 -1.04998,0.85271 -1.07973,-0.003 -1.22043,-0.10379 -1.22023,-0.87249 1.6e-4,-0.82797 -0.4661,-1.3075 -1.27144,-1.3075 -0.73337,0 -1.41221,0.68188 -1.3423,1.34832 0.0697,0.66448 -0.13334,0.83416 -0.99815,0.83416 -1.17286,0 -1.30668,-0.0909 -1.30668,-0.88797 0,-0.73387 -0.26399,-1.09744 -0.94852,-1.30632 -0.85889,-0.26208 -1.57557,0.42607 -1.691563,1.62424 -0.04385,0.45294 -0.09986,0.49237 -0.76716,0.54005 -1.225573,0.0876 -1.47891,-0.0443 -1.47891,-0.76941 0,-0.91072 -0.443728,-1.39196 -1.283472,-1.39196 -0.859222,0 -1.201321,0.34721 -1.31478,1.33442 l -0.08913,0.77552 h -1.058766 -1.058667 l -0.09117,-0.79389 c -0.133412,-1.16172 -0.964679,-1.66738 -1.924826,-1.17087 -0.496676,0.25685 -0.620265,0.51446 -0.708163,1.47614 -0.04145,0.45342 -0.09652,0.49232 -0.76452,0.54005 -1.18617,0.0847 -1.478911,-0.0524 -1.478911,-0.6927 0,-0.7837 -0.13476,-1.04599 -0.683111,-1.32955 -0.544308,-0.28148 -1.294723,-0.18511 -1.621121,0.20818 -0.115174,0.13878 -0.248501,0.59214 -0.296279,1.00748 l -0.08687,0.75516 h -1.058666 c -1.057204,0 -1.058732,-6.2e-4 -1.105967,-0.48862 -0.11599,-1.19817 -0.832673,-1.88632 -1.691564,-1.62424 -0.684531,0.20888 -0.948519,0.57245 -0.948519,1.30632 0,0.7938 -0.137443,0.88921 -1.275578,0.88548 -0.978058,-0.003 -1.110504,-0.10783 -1.106036,-0.87369 0.0029,-0.49032 -0.09686,-0.71837 -0.44515,-1.01795 -0.552658,-0.47537 -1.068074,-0.49071 -1.630245,-0.0485 -0.345304,0.27162 -0.429144,0.47504 -0.429144,1.04124 0,0.80094 -0.136142,0.9014 -1.221538,0.9014 -1.074475,0 -1.24614,-0.11041 -1.130456,-0.72706 0.144159,-0.76844 -0.475421,-1.45542 -1.312621,-1.45542 -0.8372,0 -1.45678,0.68698 -1.312621,1.45542 0.115684,0.61665 -0.05598,0.72706 -1.130455,0.72706 -1.081505,0 -1.221539,-0.10179 -1.221539,-0.88797 0,-0.46005 -0.09862,-0.77951 -0.295713,-0.95788 -0.905443,-0.81941 -2.229346,-0.23468 -2.19521,0.96957 0.02143,0.75599 -0.125337,0.87052 -1.119653,0.87379 -1.107296,0.004 -1.275576,-0.10099 -1.275576,-0.79305 0,-1.09792 -0.843706,-1.71442 -1.802657,-1.3172 -0.497041,0.20588 -0.888164,0.95624 -0.757961,1.45414 0.129307,0.49447 -0.254506,0.68029 -1.293844,0.62642 l -0.950255,-0.0492 -0.08687,-0.75516 c -0.100501,-0.87363 -0.326679,-1.20615 -0.922079,-1.35558 -0.877116,-0.22014 -1.799292,0.60667 -1.654783,1.48365 0.08877,0.53871 -0.168692,0.70909 -1.051212,0.69566 -0.465005,-0.007 -0.93708,-0.0498 -1.049054,-0.095 z m 75.824941,-6.9282 c 0.1508,-0.1508 0.19488,-8.0666 0.19296,-34.65096 -0.001,-18.95054 -0.0608,-34.547299 -0.132,-34.659479 -0.1032,-0.16255 -7.35247,-0.19562 -35.707133,-0.16287 l -35.577641,0.0411 -0.0411,34.681839 c -0.03275,27.63802 3.26e-4,34.70814 0.162872,34.81134 0.112182,0.0712 16.112059,0.13063 35.555283,0.132 27.281089,0.002 35.395929,-0.0421 35.546759,-0.19295 z"
       inkscape:connector-curvature="0" />
    <g
       id="g7030"
       transform="matrix(0.77149178,0.10169574,-0.13148954,0.59668185,37.391945,37.961673)"
       style="stroke:#ff0000;stroke-opacity:0.87943271">
      <path
         inkscape:connector-curvature="0"
         id="path6946"
         d="m 75.784227,96.861606 c 0,0 2.965953,-12.53814 23.434523,-16.81994 20.46857,-4.2818 25.13542,-26.458334 25.13542,-26.458334"
         style="fill:none;fill-opacity:0.56028365;fill-rule:evenodd;stroke:#ff0000;stroke-width:0.26458332px;stroke-linecap:butt;stroke-linejoin:miter;stroke-opacity:0.87943271" />
      <path
         inkscape:connector-curvature="0"
         id="path6946-0"
         d="m 80.98104,99.789318 c 0,0 2.965953,-12.538141 23.43452,-16.819941 20.46857,-4.2818 25.13542,-26.458335 25.13542,-26.458335"
         style="fill:none;fill-opacity:0.56028365;fill-rule:evenodd;stroke:#ff0000;stroke-width:0.26458332px;stroke-linecap:butt;stroke-linejoin:miter;stroke-opacity:0.87943271" />
      <path
         inkscape:connector-curvature="0"
         id="path6946-0-6"
         d="m 84.00485,105.45896 c 0,0 2.965953,-12.538141 23.43452,-16.819941 20.46857,-4.281799 25.13542,-26.458334 25.13542,-26.458334"
         style="fill:none;fill-opacity:0.56028365;fill-rule:evenodd;stroke:#ff0000;stroke-width:0.26458332px;stroke-linecap:butt;stroke-linejoin:miter;stroke-opacity:0.87943271" />
      <path
         inkscape:connector-curvature="0"
         id="path6946-0-6-6"
         d="m 88.162588,109.99467 c 0,0 2.965953,-12.538136 23.434522,-16.819936 C 132.06568,88.892935 136.73253,66.7164 136.73253,66.7164"
         style="fill:none;fill-opacity:0.56028365;fill-rule:evenodd;stroke:#ff0000;stroke-width:0.26458332px;stroke-linecap:butt;stroke-linejoin:miter;stroke-opacity:0.87943271" />
    </g>
    <path
       style="fill:#121212;fill-opacity:0.68557919;stroke-width:0.10841235"
       d="m 94.762051,153.05922 c 0.09734,-0.2101 0.109679,-0.65315 0.04064,-1.45794 -0.05455,-0.63589 -0.05927,-1.26064 -0.01053,-1.38837 0.205643,-0.53848 3.205461,-4.03343 3.499131,-4.07668 0.0474,-0.007 0.181657,0.12017 0.298437,0.28256 0.31577,0.43909 1.698681,1.50538 1.911701,1.47402 0.24959,-0.0368 0.35648,-0.46247 0.35149,-1.39986 -0.005,-0.90829 -0.18075,-1.57906 -0.55289,-2.10828 l -0.26427,-0.37581 0.44853,-0.63411 c 0.43885,-0.62047 0.45534,-0.63168 0.76498,-0.52034 0.17404,0.0626 0.45129,0.27089 0.6161,0.46289 0.48307,0.56281 1.3858,1.07893 2.55014,1.45797 l 1.08688,0.35382 2.16107,-0.28006 c 2.70926,-0.35109 3.06287,-0.47399 3.6278,-1.26071 0.22837,-0.31805 0.45354,-0.69161 0.50037,-0.83016 0.14617,-0.43236 -0.0186,-1.04581 -0.49061,-1.82612 -0.41995,-0.69432 -1.13804,-2.61573 -1.54328,-4.12936 -0.17789,-0.66447 -0.11083,-0.79699 0.82107,-1.62221 0.86422,-0.76531 1.80487,-1.95729 2.19619,-2.78303 0.28916,-0.61017 0.31958,-0.78578 0.26714,-1.54249 -0.0791,-1.14172 0.0673,-3.37742 0.29132,-4.44826 0.26851,-1.28355 1.69188,-6.58514 2.20458,-8.21132 0.69817,-2.21445 1.19075,-2.71648 2.91666,-2.9726 0.40151,-0.0595 1.01841,-0.19979 1.37091,-0.31159 0.58662,-0.18606 0.68387,-0.18743 1.1482,-0.0163 0.61797,0.22775 1.36245,0.35475 2.45817,0.41934 0.45541,0.0268 1.11189,0.13157 1.45883,0.23273 1.11371,0.32471 1.80889,0.0411 2.28444,-0.93214 0.17966,-0.36768 0.18559,-0.53292 0.0517,-1.44205 -0.0916,-0.62197 -0.22834,-1.15386 -0.34687,-1.34911 -0.22347,-0.36813 -1.21181,-0.94434 -3.69148,-2.1522 -1.30763,-0.63696 -1.74512,-0.90703 -2.01593,-1.24446 -0.44651,-0.55636 -1.41915,-1.19926 -2.18302,-1.44293 -0.33124,-0.10563 -1.30916,-0.32798 -2.17312,-0.49402 -0.86397,-0.16603 -1.61373,-0.36296 -1.66613,-0.43762 -0.0524,-0.0746 -0.21533,-0.36323 -0.36207,-0.64127 -0.29685,-0.5625 -2.60355,-1.25783 -2.84176,-1.13881 -0.38113,-0.0824 0.6209,1.84865 1.05822,2.80529 0.22683,0.49622 0.22677,0.49719 -0.0462,0.80247 -0.20188,0.22574 -0.35955,0.30363 -0.6032,0.29792 -0.85077,-0.0199 -2.2274,0.14909 -2.79853,0.34354 -0.3985,0.13567 -1.25961,0.64495 -2.36886,1.40098 -0.95851,0.65331 -2.04343,1.31216 -2.41094,1.46412 -0.8616,0.35626 -2.15864,0.47479 -3.08497,0.28192 -0.37306,-0.0776 -1.53021,-0.80867 -1.705245,-0.81599 -0.31612,-0.0132 0.391385,0.65106 0.528695,1.04957 0.076,0.22078 0.22278,0.51896 0.32609,0.66262 0.41117,0.57174 1.64105,1.1433 2.68705,1.24873 0.29844,0.0301 0.52326,0.1135 0.53584,0.19889 0.0334,0.22704 -0.92619,1.0199 -1.60564,1.32661 -0.45782,0.20667 -0.87412,0.3013 -1.67001,0.37962 -0.69339,0.0683 -1.054487,0.14286 -1.043767,0.21567 0.009,0.0612 0.331857,0.32811 0.717437,0.5931 0.61185,0.42049 1.39647,0.75235 2.04506,0.865 0.36146,0.0628 0.23239,0.23183 -0.52348,0.68564 -1.32108,0.79312 -1.90071,0.99395 -3.602398,1.24811 -1.794058,0.26792 -2.288518,0.22914 -4.898583,-0.38446 -0.854428,-0.20086 -1.945076,-0.40761 -2.423662,-0.45944 -1.794736,-0.19434 -4.095445,0.21248 -6.262357,1.10736 -1.856709,0.76674 -2.967189,1.47922 -4.273013,2.74145 -0.448458,0.4335 -0.875131,0.79739 -0.948164,0.80864 -0.329525,0.051 -1.391521,-0.28165 -2.838634,-0.88868 -2.628569,-1.10263 -3.892907,-1.37583 -5.062205,-1.09385 -1.145413,0.27624 -1.588783,0.6774 -3.407046,3.0827 -1.855589,2.45468 -2.398772,3.04667 -3.409298,3.71564 -0.603569,0.39957 -0.836586,0.48805 -1.73048,0.65716 -0.718934,0.13603 -1.290336,0.17668 -1.87941,0.13379 -0.465525,-0.0339 -0.870358,-0.0294 -0.899632,0.0104 -0.08852,0.11909 0.236039,0.53909 0.737433,0.9543 1.295099,1.07246 3.551989,1.547 5.790002,1.21742 2.361349,-0.34773 4.178691,-1.59475 4.856888,-3.33267 0.577378,-1.47956 1.167819,-2.2 2.262171,-2.76017 0.903979,-0.46274 2.314663,-0.6041 3.648375,-0.3656 0.516504,0.0923 0.971269,0.22511 1.010584,0.29497 0.03931,0.0699 -8.14e-4,0.4838 -0.08921,0.91985 -0.641651,3.16568 0.214084,5.81593 2.479549,7.6793 1.279173,1.05212 1.528722,1.47872 1.225228,2.09451 -0.242018,0.49105 -1.258905,2.17641 -1.717338,2.84627 -0.691551,1.01048 -0.682151,1.41026 0.04469,1.90141 0.190793,0.12893 1.38135,0.72927 2.64568,1.3341 1.264332,0.60483 2.513745,1.23478 2.776476,1.39988 l 0.477694,0.3002 -0.0789,0.45272 c -0.04687,0.26893 -0.02604,0.61679 0.05132,0.8569 0.19342,0.60027 0.201759,0.66952 0.160308,1.33118 -0.04652,0.74269 0.202401,1.75044 0.500026,2.02435 0.18144,0.16698 0.252507,0.17456 0.426678,0.0455 0.296945,-0.21998 0.75212,-1.01801 1.235874,-2.16676 0.507547,-1.20523 0.535516,-1.4217 0.240489,-1.8612 -0.126225,-0.18805 -0.243758,-0.43871 -0.261184,-0.55705 -0.09632,-0.65403 -1.211779,-1.61546 -3.141698,-2.70784 -0.548671,-0.31056 -1.208279,-0.70189 -1.465796,-0.86961 -0.734669,-0.47853 -0.679103,-0.66022 0.609372,-1.99258 1.832355,-1.89474 2.664153,-2.21063 3.424003,-3.57993 l 0.316387,-1.25031 0.613078,0.22533 c 1.351255,0.49665 2.024374,1.17077 2.033343,2.03635 0.0089,0.86429 -0.479348,3.38011 -0.774745,3.9916 -0.612521,1.26798 -0.310692,1.87416 1.082088,2.17322 0.938871,0.2016 2.013346,0.58013 3.030363,1.06757 0.88329,0.42335 2.605329,1.67427 2.641325,1.9187 0.06935,0.47093 -1.696179,2.49478 -3.055026,3.502 l -0.781958,0.57962 0.04197,0.51093 c 0.04142,0.5042 0.03415,0.51671 -0.552079,0.94947 -0.723649,0.5342 -0.885022,0.91223 -0.703434,1.64787 0.159874,0.64767 0.666771,1.20178 1.451105,1.58625 0.694696,0.34053 1.031922,0.31423 1.221635,-0.0952 z m 11.574689,-9.53017 c -0.21015,-0.0281 -0.59708,-0.21773 -0.85986,-0.42129 -0.27257,-0.21117 -0.57981,-0.35582 -0.71535,-0.33683 -0.3647,0.0513 -0.49056,-0.0511 -0.64228,-0.52187 -0.21357,-0.66267 -0.56924,-0.84967 -1.48544,-0.78103 -0.4588,0.0344 -0.7701,0.009 -0.77957,-0.0627 -0.008,-0.0659 0.32061,-0.6097 0.73172,-1.20829 l 0.74748,-1.08837 0.7215,-0.18374 c 0.51313,-0.13066 0.91813,-0.32417 1.4023,-0.67001 0.37443,-0.26744 0.70533,-0.4571 0.73535,-0.42144 0.0301,0.0356 0.11682,0.25253 0.19289,0.48194 0.17632,0.53174 1.12025,1.94969 2.08881,3.13775 0.80349,0.98559 0.90239,1.21826 0.66732,1.56985 -0.12618,0.18872 -0.32034,0.24758 -1.28571,0.38973 -0.62539,0.0921 -1.30902,0.14443 -1.51916,0.1163 z m -8.766996,-1.40911 c -0.648155,-0.50002 -2.375125,-1.56589 -3.178955,-1.96201 -0.637034,-0.31392 -0.65218,-0.37826 -0.342748,-1.45608 0.212812,-0.74126 0.631404,-1.38337 1.255075,-1.92521 0.334873,-0.29093 0.558074,-0.60564 0.687225,-0.96896 0.105201,-0.29595 0.228241,-0.54354 0.273425,-0.55019 0.129438,-0.0191 3.667857,1.0026 3.802184,1.09782 0.23972,0.16993 -0.466117,2.98406 -1.212161,4.83284 -0.458877,1.13715 -0.553877,1.33063 -0.661097,1.34641 -0.0395,0.006 -0.319813,-0.18077 -0.622948,-0.41462 z"
       id="path6801"
       inkscape:connector-curvature="0"
       sodipodi:nodetypes="cscccccccccccccccccccccscccccccccccccccccccccccccccccccccccccccccscccccccccccccccsccccccccccccccccccccccccccscccccccccccccscccccccccccscc" />
    <g
       id="g946"
       transform="matrix(1.0630762,0,0,1.0630762,-5.1614101,-7.4488645)">
      <g
         transform="matrix(0.59592311,0,0,0.59592311,81.126334,33.678459)"
         id="g6944">
        <g
           id="g6868"
           transform="matrix(1.4164339,0,0,1.4164339,-26.891326,-91.919786)">
          <g
             aria-label="PONY MAIL"
             transform="scale(0.93252501,1.0723573)"
             style="font-style:normal;font-variant:normal;font-weight:bold;font-stretch:normal;font-size:8.78327274px;line-height:125%;font-family:Montserrat;-inkscape-font-specification:'Montserrat Bold';letter-spacing:0px;word-spacing:0px;fill:#ce1515;fill-opacity:1;stroke:#ce1515;stroke-width:0.2657924;stroke-linecap:butt;stroke-linejoin:miter;stroke-miterlimit:4;stroke-dasharray:none;stroke-opacity:1"
             id="text6826">
            <path
               d="m -3.3195791,144.05275 q 1.3965404,0 2.0377193,0.53578 0.64117893,0.53578 0.64117893,1.65126 0,1.11547 -0.65874543,1.63369 -0.6499622,0.51821 -2.0025862,0.51821 h -1.0891258 v 1.80057 h -1.0364262 v -6.13951 z m 0.1317491,3.39913 q 0.8607608,0 1.1681753,-0.32498 0.3161978,-0.33377 0.3161978,-0.96616 0,-0.64118 -0.3952472,-0.90468 -0.3952473,-0.2635 -1.2384415,-0.2635 h -1.0539927 v 2.45932 z"
               style="font-style:normal;font-variant:normal;font-weight:normal;font-stretch:normal;font-family:Montserrat;-inkscape-font-specification:Montserrat;fill:#ce1515;fill-opacity:1;stroke:#ce1515;stroke-width:0.2657924;stroke-miterlimit:4;stroke-dasharray:none;stroke-opacity:1"
               id="path962" />
            <path
               d="m 4.9506958,145.50199 q -0.6236124,-0.64996 -1.5370728,-0.64996 -0.9134603,0 -1.545856,0.64996 -0.6236123,0.64997 -0.6236123,1.58099 0,0.92225 0.6236123,1.57221 0.6323957,0.64996 1.545856,0.64996 0.9134604,0 1.5370728,-0.64996 0.6323956,-0.64996 0.6323956,-1.57221 0,-0.93102 -0.6323956,-1.58099 z m 0.7641447,3.84708 q -0.9310269,0.90467 -2.3012175,0.90467 -1.3701905,0 -2.3012174,-0.90467 -0.93102694,-0.91346 -0.93102694,-2.26609 0,-1.36141 0.93102694,-2.26608 0.9310269,-0.91346 2.3012174,-0.91346 1.3701906,0 2.3012175,0.91346 0.9310269,0.90467 0.9310269,2.26608 0,1.35263 -0.9310269,2.26609 z"
               style="font-style:normal;font-variant:normal;font-weight:normal;font-stretch:normal;font-family:Montserrat;-inkscape-font-specification:Montserrat;fill:#ce1515;fill-opacity:1;stroke:#ce1515;stroke-width:0.2657924;stroke-miterlimit:4;stroke-dasharray:none;stroke-opacity:1"
               id="path964" />
            <path
               d="m 12.555638,144.05275 h 1.036426 v 6.13951 h -1.124259 l -3.4781755,-4.47947 v 4.47947 H 7.9532033 v -6.13951 h 1.0364262 l 3.5660085,4.58487 z"
               style="font-style:normal;font-variant:normal;font-weight:normal;font-stretch:normal;font-family:Montserrat;-inkscape-font-specification:Montserrat;fill:#ce1515;fill-opacity:1;stroke:#ce1515;stroke-width:0.2657924;stroke-miterlimit:4;stroke-dasharray:none;stroke-opacity:1"
               id="path966" />
            <path
               d="m 17.710869,150.19226 h -1.053992 v -2.42418 l -2.283651,-3.71533 h 1.133042 l 1.677605,2.79308 1.677605,-2.79308 h 1.133042 l -2.283651,3.71533 z"
               style="font-style:normal;font-variant:normal;font-weight:normal;font-stretch:normal;font-family:Montserrat;-inkscape-font-specification:Montserrat;fill:#ce1515;fill-opacity:1;stroke:#ce1515;stroke-width:0.2657924;stroke-miterlimit:4;stroke-dasharray:none;stroke-opacity:1"
               id="path968" />
            <path
               d="m 24.205963,150.19226 h -1.036426 v -6.13951 h 1.616122 l 1.85327,3.85586 1.853271,-3.85586 h 1.607339 v 6.13951 h -1.036426 v -4.79567 l -2.143119,4.25989 h -0.579696 l -2.134335,-4.25989 z"
               style="font-style:normal;font-variant:normal;font-weight:normal;font-stretch:normal;font-family:Montserrat;-inkscape-font-specification:Montserrat;fill:#ce1515;fill-opacity:1;stroke:#ce1515;stroke-width:0.2657924;stroke-miterlimit:4;stroke-dasharray:none;stroke-opacity:1"
               id="path970" />
            <path
               d="m 32.667962,148.79572 -0.614829,1.39654 h -1.106692 l 2.705248,-6.13951 h 1.106692 l 2.705248,6.13951 h -1.106692 l -0.614829,-1.39654 z m 2.652549,-0.95738 -1.115476,-2.52958 -1.115476,2.52958 z"
               style="font-style:normal;font-variant:normal;font-weight:normal;font-stretch:normal;font-family:Montserrat;-inkscape-font-specification:Montserrat;fill:#ce1515;fill-opacity:1;stroke:#ce1515;stroke-width:0.2657924;stroke-miterlimit:4;stroke-dasharray:none;stroke-opacity:1"
               id="path972" />
            <path
               d="m 38.317251,144.05275 h 1.036426 v 6.13951 h -1.036426 z"
               style="font-style:normal;font-variant:normal;font-weight:normal;font-stretch:normal;font-family:Montserrat;-inkscape-font-specification:Montserrat;fill:#ce1515;fill-opacity:1;stroke:#ce1515;stroke-width:0.2657924;stroke-miterlimit:4;stroke-dasharray:none;stroke-opacity:1"
               id="path974" />
            <path
               d="m 41.062025,150.19226 v -6.13951 h 1.036426 v 5.15578 h 2.801864 v 0.98373 z"
               style="font-style:normal;font-variant:normal;font-weight:normal;font-stretch:normal;font-family:Montserrat;-inkscape-font-specification:Montserrat;fill:#ce1515;fill-opacity:1;stroke:#ce1515;stroke-width:0.2657924;stroke-miterlimit:4;stroke-dasharray:none;stroke-opacity:1"
               id="path976" />
          </g>
        </g>
        <rect
           ry="9.9013481"
           rx="5.3437915"
           y="122.39892"
           x="-40.263706"
           height="19.318239"
           width="78.860748"
           id="rect6822-6"
           style="opacity:1;fill:none;fill-opacity:1;stroke:#ce1515;stroke-width:1.58421898;stroke-linecap:butt;stroke-linejoin:miter;stroke-miterlimit:4;stroke-dasharray:none;stroke-opacity:1" />
        <path
           style="fill:#de1111;fill-opacity:1;stroke-width:0.06020197"
           d="m -3.0618634,164.65858 c -4.501068,-0.34669 -8.5754576,-1.47486 -12.4919076,-3.4589 -3.11476,-1.57791 -5.63025,-3.37519 -8.0892,-5.77961 -3.17293,-3.10256 -5.63259,-6.7201 -7.31272,-10.75516 -0.46859,-1.12538 -1.01688,-2.68948 -0.96961,-2.76598 0.0186,-0.0301 0.27378,-0.0547 0.56709,-0.0547 h 0.53328 l 0.0928,0.25586 c 0.88448,2.43923 1.45483,3.72086 2.40449,5.40313 3.69965,6.55371 9.50849,11.51707 16.53644,14.12954 2.3737196,0.88237 4.7610696,1.4524 7.4175876,1.77113 1.33588,0.16028 4.35199995,0.22124 5.77903,0.1168 10.4880404,-0.76757 19.8243704,-6.61607 25.0891604,-15.71647 0.88665,-1.53259 1.82678,-3.59975 2.49838,-5.49342 l 0.16547,-0.46657 h 0.53215 c 0.29269,0 0.5483,0.0261 0.56802,0.058 0.0787,0.12739 -0.80501,2.46604 -1.49608,3.9591 -2.68875,5.8091 -7.22784,10.86348 -12.71987,14.16389 -4.19887,2.52329 -8.6801804,4.01083 -13.7129604,4.55191 -1.00562,0.10812 -4.3828,0.15912 -5.39153,0.0814 z m 0.51172,-2.14037 c -0.13245,-0.0127 -0.57945,-0.0519 -0.99334,-0.0871 -4.155288,-0.35373 -8.6213576,-1.75205 -12.2827576,-3.84572 -6.31328,-3.61007 -11.00398,-9.09759 -13.57964,-15.88644 -0.14589,-0.38453 -0.26525,-0.73415 -0.26525,-0.77692 0,-0.10433 0.62463,-0.10657 0.7072,-0.002 0.0329,0.0414 0.0944,0.18361 0.13668,0.31606 0.30679,0.96014 1.41388,3.33128 2.16436,4.63555 2.00427,3.48325 4.86672,6.6967 8.09902,9.09216 3.9425,2.92178 8.50899,4.8223 13.3648376,5.5623 2.57437,0.39231 5.58035995,0.42451 8.27777,0.0886 4.98519,-0.62071 10.0161804,-2.65837 14.0872604,-5.70566 2.15315,-1.61167 4.40488,-3.86227 6.03037,-6.02735 1.61818,-2.15532 2.87,-4.40742 3.93192,-7.07373 l 0.37165,-0.93313 0.34151,-0.0181 c 0.27899,-0.0147 0.34151,-6.9e-4 0.34151,0.0772 0,0.0524 -0.1256,0.42626 -0.27912,0.83078 -2.05222,5.40743 -5.61355,10.1607 -10.20463,13.62 -4.43744,3.34353 -9.6632204,5.40588 -15.2525904,6.01944 -0.84732,0.093 -4.376,0.17384 -4.99676,0.11445 z m 0.33111,-8.55284 c -3.09462,-0.2129 -5.786558,-0.94654 -8.4884776,-2.31338 -3.05981,-1.54789 -5.58026,-3.66978 -7.63897,-6.431 -0.78959,-1.05903 -1.99334,-3.0559 -1.99334,-3.30669 0,-0.0412 0.096,-0.0701 0.23315,-0.0701 h 0.23316 l 0.43367,0.76757 c 0.55977,0.99078 1.30405,2.10148 1.96665,2.93485 0.67594,0.85015 2.45135,2.62589 3.30407,3.3047 2.81771,2.24305 6.1814996,3.75049 9.6828176,4.33925 1.29967,0.21854 2.17631,0.28989 3.56160995,0.28989 3.34580005,0 6.34633005,-0.69267 9.33131005,-2.15412 2.1626904,-1.05886 3.8193904,-2.25067 5.6036304,-4.03117 1.60881,-1.60544 2.68925,-3.0465 3.78219,-5.04461 0.2164,-0.39561 0.22858,-0.40636 0.46014,-0.40636 0.14074,0 0.23786,0.0286 0.23786,0.0701 0,0.11614 -0.63392,1.27665 -1.08985,1.99517 -3.34365,5.26937 -8.8516504,8.88575 -14.9587704,9.82147 -1.53688005,0.23547 -3.33274005,0.3258 -4.66085,0.23443 z M -31.890831,122.28468 c -0.0679,-0.043 -0.0529,-0.14175 0.0843,-0.55594 1.10432,-3.3336 2.97449,-6.84153 5.1149,-9.59417 1.30321,-1.67596 3.03656,-3.51032 4.51563,-4.77875 3.55784,-3.05116 7.6681,-5.29274 12.09594,-6.59666 6.0215076,-1.773244 12.3492776,-1.785554 18.3803876,-0.0358 3.9418604,1.14363 7.7615004,3.1003 10.9727204,5.62092 1.13421,0.89029 1.89684,1.57042 3.01269,2.68678 1.94237,1.94325 3.48566,3.92257 4.93623,6.33085 1.02547,1.70253 2.28492,4.43999 2.88768,6.27648 0.22975,0.7 0.23084,0.69811 -0.40231,0.69946 -0.50676,10e-4 -0.56629,-0.0402 -0.71424,-0.49494 -0.0567,-0.17428 -0.27264,-0.75032 -0.47987,-1.2801 -2.14672,-5.48803 -5.72862,-10.19081 -10.46144,-13.73513 -6.54081,-4.8983 -14.7080504,-7.058654 -22.8222904,-6.03681 -9.1742676,1.15533 -17.3845676,6.28454 -22.4459476,14.02265 -1.36077,2.08041 -2.57137,4.52194 -3.32831,6.71252 -0.12585,0.36423 -0.27041,0.69609 -0.32123,0.73748 -0.10569,0.0861 -0.89661,0.10237 -1.02486,0.0211 z m 2.2197,-0.006 c -0.0778,-0.0498 -0.058,-0.15197 0.14288,-0.73655 0.53421,-1.55489 1.5604,-3.71355 2.54364,-5.35073 4.84317,-8.06433 13.08729,-13.43159 22.4549376,-14.61911 7.30947,-0.92661 14.7939004,0.86284 20.9197904,5.00169 4.42494,2.98963 7.97778,7.06981 10.34576,11.88136 0.62791,1.27586 1.4624,3.34194 1.47109,3.64222 0.006,0.20113 -0.004,0.21155 -0.21863,0.22933 -0.12359,0.0102 -0.26831,-0.006 -0.32159,-0.0356 -0.0533,-0.0298 -0.25794,-0.47165 -0.45482,-0.98185 -1.60116,-4.14936 -3.93578,-7.70705 -7.05495,-10.75091 -2.3187,-2.26271 -4.64368,-3.91266 -7.56633,-5.36952 -3.3430504,-1.66643 -6.5985704,-2.60543 -10.5052404,-3.03008 -0.96667,-0.10508 -4.62209,-0.10507 -5.62889,1e-5 -3.707358,0.38695 -7.0120176,1.31922 -10.2661976,2.89617 -4.31116,2.08916 -8.0484,5.18218 -10.93035,9.04618 -1.65105,2.21367 -3.11661,4.9068 -4.02384,7.39425 -0.13888,0.38078 -0.29664,0.72619 -0.35058,0.76757 -0.11584,0.0889 -0.42857,0.0976 -0.55668,0.0156 z m 9.64736,0.0198 c -0.1204,-0.0486 -0.0956,-0.11531 0.29462,-0.79287 1.66515,-2.89125 4.04015,-5.41914 6.82427,-7.26358 2.9329896,-1.94306 6.1407496,-3.09894 9.7036376,-3.4966 1.19128,-0.13296 3.36181995,-0.13296 4.5531,0 3.208,0.35805 6.14921,1.33778 8.8307104,2.94154 2.76041,1.65096 5.19866,3.97863 6.94981,6.63461 0.58622,0.88912 1.11726,1.78859 1.11726,1.89241 0,0.096 -0.27578,0.1421 -0.4125,0.0689 -0.0675,-0.0361 -0.27704,-0.32965 -0.46566,-0.65229 -1.4281,-2.44271 -3.32981,-4.56402 -5.65305,-6.3058 -5.9111804,-4.43174 -13.8261304,-5.43031 -20.6944484,-2.61087 -4.2036496,1.7256 -7.8239196,4.84922 -10.1414196,8.75016 -0.49567,0.83433 -0.62084,0.94956 -0.90633,0.83437 z"
           id="path6937"
           inkscape:connector-curvature="0" />
      </g>
      <g
         transform="rotate(6.9059427,81.097422,111.58874)"
         id="g914">
        <g
           aria-label="APACHE"
           style="font-style:normal;font-variant:normal;font-weight:bold;font-stretch:normal;font-size:5.69151926px;line-height:125%;font-family:Montserrat;-inkscape-font-specification:'Montserrat Bold';letter-spacing:0px;word-spacing:0px;fill:#ff0606;fill-opacity:1;stroke:none;stroke-width:0.42686394px;stroke-linecap:butt;stroke-linejoin:miter;stroke-opacity:1"
           id="text7034">
          <path
             d="m 68.546921,104.47218 0.450911,0.87996 -0.452346,0.55648 -1.981359,-3.86971 0.452346,-0.55647 4.192827,1.14917 -0.452346,0.55648 -0.953517,-0.26167 z m 0.602802,-1.72509 -1.727872,-0.47304 0.816,1.59482 z"
             style="font-style:normal;font-variant:normal;font-weight:normal;font-stretch:normal;font-family:Montserrat;-inkscape-font-specification:Montserrat;fill:#ff0606;fill-opacity:1;stroke-width:0.42686394px"
             id="path948" />
          <path
             d="m 70.628559,98.272575 q 0.750531,-0.50561 1.28909,-0.449807 0.538559,0.0558 0.942412,0.655284 0.403852,0.599481 0.237444,1.116475 -0.161687,0.513813 -0.888615,1.003523 l -0.58532,0.39431 0.651888,0.96767 -0.556998,0.37523 -2.222776,-3.2995 z M 71.93,100.05164 q 0.462591,-0.311636 0.510145,-0.597585 0.04909,-0.29385 -0.179862,-0.633713 -0.232136,-0.344583 -0.539948,-0.343095 -0.307812,0.0015 -0.760963,0.306761 l -0.566438,0.381593 0.890383,1.321689 z"
             style="font-style:normal;font-variant:normal;font-weight:normal;font-stretch:normal;font-family:Montserrat;-inkscape-font-specification:Montserrat;fill:#ff0606;fill-opacity:1;stroke-width:0.42686394px"
             id="path950" />
          <path
             d="m 75.10775,99.346616 -0.102435,0.983444 -0.682744,0.21941 0.451759,-4.323926 0.682744,-0.219404 2.8861,3.251283 -0.682744,0.219404 -0.656169,-0.739667 z m 1.446616,-1.116501 -1.189658,-1.339412 -0.186667,1.781703 z"
             style="font-style:normal;font-variant:normal;font-weight:normal;font-stretch:normal;font-family:Montserrat;-inkscape-font-specification:Montserrat;fill:#ff0606;fill-opacity:1;stroke-width:0.42686394px"
             id="path952" />
          <path
             d="m 80.724088,98.589279 q 0.347056,-0.0094 0.594316,-0.129935 0.247106,-0.126244 0.51328,-0.389649 l 0.444392,0.43209 q -0.612615,0.716869 -1.517236,0.741318 -0.898932,0.02429 -1.512008,-0.539882 -0.607386,-0.564331 -0.631374,-1.451884 -0.02399,-0.887553 0.563102,-1.495554 0.592778,-0.608155 1.514468,-0.633066 0.927379,-0.02506 1.56598,0.640909 l -0.414099,0.478066 q -0.291853,-0.265405 -0.5508,-0.366584 -0.253257,-0.101334 -0.594623,-0.09211 -0.603081,0.0163 -1.002111,0.419942 -0.399184,0.397953 -0.38273,1.006724 0.0163,0.603081 0.431321,1.001803 0.420557,0.392879 0.978122,0.37781 z"
             style="font-style:normal;font-variant:normal;font-weight:normal;font-stretch:normal;font-family:Montserrat;-inkscape-font-specification:Montserrat;fill:#ff0606;fill-opacity:1;stroke-width:0.42686394px"
             id="path954" />
          <path
             d="m 83.126703,99.278337 0.992434,-3.852599 0.650367,0.167535 -0.430197,1.670011 1.912521,0.492667 0.430196,-1.67001 0.650368,0.167535 -0.992434,3.852594 -0.650367,-0.16753 0.40606,-1.576314 -1.912521,-0.492667 -0.40606,1.576313 z"
             style="font-style:normal;font-variant:normal;font-weight:normal;font-stretch:normal;font-family:Montserrat;-inkscape-font-specification:Montserrat;fill:#ff0606;fill-opacity:1;stroke-width:0.42686394px"
             id="path956" />
          <path
             d="m 91.737482,98.448676 -0.307145,0.55207 -1.855154,-1.032117 -0.511907,0.920116 1.666156,0.926969 -0.290542,0.522226 -1.666157,-0.926966 -0.517442,0.930066 1.914837,1.06532 -0.307144,0.55207 -2.501722,-1.39184 1.934181,-3.476545 z"
             style="font-style:normal;font-variant:normal;font-weight:normal;font-stretch:normal;font-family:Montserrat;-inkscape-font-specification:Montserrat;fill:#ff0606;fill-opacity:1;stroke-width:0.42686394px"
             id="path958" />
        </g>
        <path
           transform="rotate(-149.98227)"
           style="opacity:1;fill:none;fill-opacity:0.56028365;stroke:none;stroke-width:0.5;stroke-linecap:butt;stroke-linejoin:miter;stroke-miterlimit:4;stroke-dasharray:none;stroke-opacity:0.87943271"
           d="m -112.50133,-57.429909 a 15.024553,14.079613 0 0 1 -15.02456,14.079613 15.024553,14.079613 0 0 1 -15.02455,-14.079613 15.024553,14.079613 0 0 1 15.02455,-14.079612 15.024553,14.079613 0 0 1 15.02456,14.079612 z"
           id="path7036" />
      </g>
    </g>
  </g>
</svg>
